<?xml version="1.0" encoding="UTF-8"?><svg id="area-no-outline" xmlns="http://www.w3.org/2000/svg" viewBox="0 0 544.96 128.7"><defs><style>.cls-1{stroke-width:0px; fill:currentColor;}</style></defs><path class="cls-1" d="m153.99,127.8c2.61-8.49,6.01-22.91,10.2-43.25h-11.17c-.84,3.06-1.95,7.34-3.33,12.85-1.38,5.51-2.4,9.5-3.06,11.96-2.47,8.49-4.66,14.83-6.59,19h-25.93c2.08-7.6,3.99-15.01,5.71-22.24,1.72-7.23,2.92-12.55,3.6-15.98l1.02-5.14h-13.08c2.15-14.3,4.11-26.04,5.87-35.2,3.75-.15,6.48-.22,8.2-.22h4.02l.35-.11c.87-.3,1.29-.78,1.26-1.45l1.79-10.17h30.62l-2.08,11.17c17.24-.15,29.36-.04,36.37.34-1.51,12.37-5.99,38.4-13.44,78.11-14.44.37-24.56.48-30.34.34Z"/><path class="cls-1" d="m276.45,100.98h-23.24c-.64,3.2-1.39,6-2.26,8.38-.87,2.38-1.95,4.43-3.26,6.15-1.31,1.71-2.52,3.11-3.64,4.19-1.12,1.08-2.71,2.05-4.76,2.91-2.05.85-3.8,1.51-5.26,1.96-1.46.45-3.55,1.01-6.27,1.68-.86.22-2.12.5-3.78.84-1.66.33-5.03.73-10.1,1.17-5.07.45-10.16.56-15.26.33.09-1.34.32-3.39.69-6.15.37-2.76.59-4.51.65-5.25,3.82.3,7.28-.07,10.37-1.12,3.09-1.04,5.47-2.4,7.15-4.08,1.67-1.68,3.07-3.39,4.2-5.14,1.13-1.75,1.83-3.22,2.12-4.41l.56-1.9h-24.03c1.61-10.8,3.08-19.82,4.43-27.04h25.03l1.3-7.38c-6.93,0-12.66-.04-17.19-.11.41-2.75,1.72-10.21,3.94-22.35,3.81-.07,8.26-.26,13.34-.56,5.08-.3,12.72-1.13,22.91-2.51,10.19-1.38,19.57-3.15,28.15-5.31l-4.3,24.36c-4.43,1.86-10.26,3.24-17.49,4.13l-1.77,10.06h22.57l-4.79,27.16Z"/><path class="cls-1" d="m279.55,122.33c.24-1.34.89-5.7,1.97-13.07,1.08-7.38,1.9-13.08,2.46-17.1,1.43-.07,4.81-.17,10.16-.28,5.34-.11,9.93-.24,13.76-.39l2.74-15.53c-6.26,0-11.8-.04-16.63-.11,1.75-12.07,3.5-22.39,5.23-30.95,18.23-.3,39.22-.37,62.95-.22-1.02,7.08-3.02,17.32-5.98,30.73-9.28.22-14.63.37-16.06.45l-1.62,9.16c-.11.6-.31,1.56-.62,2.91-.31,1.34-.58,2.68-.82,4.02,9.46,0,17.53.08,24.21.22-1.34,8.87-3.11,18.89-5.3,30.06-1.42,0-6.09.02-14.03.06-7.94.04-17.72.06-29.34.06h-33.08Z"/><path class="cls-1" d="m392.91,94.72c-9.5.22-18.11.22-25.81,0,1.18-7.97,2.81-17.73,4.88-29.28,2.07-11.55,3.45-18.81,4.12-21.79,4.19-.07,12.91-.11,26.17-.11-3.2,19-6.32,36.06-9.36,51.18Zm48.64-12.85c-1.06,5.59-2.71,10.69-4.94,15.31-2.23,4.62-4.57,8.36-7.01,11.23-2.44,2.87-5.3,5.46-8.58,7.77-3.28,2.31-6.21,4.04-8.8,5.2-2.59,1.16-5.43,2.25-8.51,3.3-.34.22-1.61.6-3.83,1.12-2.21.52-5.9,1.04-11.06,1.56-5.16.52-10.55.67-16.17.45.59-3.8,1.18-6.67,1.74-8.6,5.35-.74,10.28-2.4,14.79-4.97,4.51-2.57,8.1-5.4,10.77-8.49,2.67-3.09,4.94-6.15,6.81-9.16,1.87-3.02,3.13-5.53,3.79-7.54l1.09-3.02c.37-1.27.85-3.03,1.44-5.31.59-2.27,1.66-7.1,3.22-14.47,1.56-7.38,2.91-14.94,4.06-22.68,8.99-.3,18.56-.3,28.72,0-.61,5.14-1.47,10.54-2.58,16.2-1.11,5.66-2.22,10.77-3.31,15.31l-1.65,6.82Z"/><path class="cls-1" d="m515.64,97.29c-4.38,1.19-10.11,1.56-17.18,1.12-.18,1.04-.49,2.35-.91,3.91-.43,1.57-1.18,3.95-2.27,7.15-1.09,3.2-2.68,6.43-4.78,9.67-2.1,3.24-4.5,5.98-7.2,8.21-.45,0-2.01.02-4.7.06-2.69.04-5.02.07-7,.11-1.98.04-3.97.02-5.97-.06,4.36-16.69,6.62-32.03,6.78-46.04,7.34-.22,17.03-.22,29.05,0l-1.02,5.81c2.67-.37,5.38-1.81,8.13-4.3,2.75-2.5,4.12-5.83,4.11-10-20.47.3-40.98.45-61.54.45,2.79-18.77,4.34-29.06,4.66-30.84h89.18c-.4,3.13-.92,6.59-1.55,10.39-.63,3.8-1.18,6.82-1.65,9.05l-.61,3.46c-1.46,8.72-4.85,15.89-10.16,21.51-5.31,5.63-10.43,9.07-15.34,10.34Z"/><path class="cls-1" d="m217.55,37.89c1.33-7.16-3.4-14.05-10.57-15.37-5.39-1-10.62,1.43-13.44,5.74-1.09-5.04-5.1-9.18-10.49-10.18-7.16-1.33-14.05,3.4-15.37,10.57-1.33,7.16,3.4,14.05,10.57,15.37,5.39,1,10.62-1.43,13.44-5.74,1.09,5.04,5.1,9.18,10.49,10.18,7.16,1.33,14.05-3.4,15.37-10.57Zm-37.26-2.96c-4.21.56-7.62-.17-7.61-1.64,0-1.46,3.43-3.11,7.64-3.67,4.21-.56,7.62.17,7.61,1.64,0,1.46-3.43,3.11-7.64,3.67Zm23.62,3.3c-3.81-1.69-6.48-4.2-5.98-5.59.5-1.39,4-1.15,7.8.54,3.81,1.69,6.48,4.2,5.98,5.59s-4,1.15-7.8-.54Z"/><path class="cls-1" d="m18.85,34.66c-.06.09-.56.79-1.52,2.11-.96,1.32-2.22,3.04-3.78,5.17-1.57,2.13-3.04,4.11-4.43,5.94-.16-.09-.71-.39-1.66-.93-.95-.53-2.13-1.18-3.55-1.95-1.42-.77-2.72-1.51-3.91-2.23.21-.21.78-.85,1.71-1.91.93-1.06,2.06-2.35,3.39-3.86,1.33-1.51,2.52-2.84,3.58-3.99.16-.68,1.33-8.38,3.5-23.1.3,0,4.17-.11,11.61-.32-2.14,10.21-3.79,18.57-4.93,25.08Zm10.23,14.04c-.11-.09-.55-.46-1.3-1.12-.76-.66-1.67-1.47-2.73-2.43-1.07-.96-2.06-1.86-2.97-2.71,1.85-10.47,4.23-24.61,7.16-42.44,1.89.13,5.58.19,11.07.19-2.86,11.87-5.82,24.32-8.88,37.34,2.65-2,5.34-3.98,8.07-5.94,1.4,2.43,2.91,5.6,4.51,9.51-.09.04-.97.48-2.62,1.31-1.66.83-3.62,1.82-5.88,2.97-2.27,1.15-4.41,2.25-6.43,3.32Z"/><path class="cls-1" d="m101.42,34.66c-.06.09-.56.79-1.52,2.11-.96,1.32-2.22,3.04-3.78,5.17-1.57,2.13-3.04,4.11-4.43,5.94-.16-.09-.71-.39-1.66-.93-.95-.53-2.13-1.18-3.55-1.95-1.42-.77-2.72-1.51-3.91-2.23.21-.21.78-.85,1.71-1.91.93-1.06,2.06-2.35,3.39-3.86,1.33-1.51,2.52-2.84,3.58-3.99.16-.68,1.33-8.38,3.5-23.1.3,0,4.17-.11,11.61-.32-2.14,10.21-3.79,18.57-4.93,25.08Zm10.23,14.04c-.11-.09-.55-.46-1.3-1.12-.76-.66-1.67-1.47-2.73-2.43-1.07-.96-2.06-1.86-2.97-2.71,1.85-10.47,4.23-24.61,7.16-42.44,1.89.13,5.58.19,11.07.19-2.86,11.87-5.82,24.32-8.88,37.34,2.65-2,5.34-3.98,8.07-5.94,1.4,2.43,2.91,5.6,4.51,9.51-.09.04-.97.48-2.62,1.31-1.66.83-3.62,1.82-5.88,2.97-2.27,1.15-4.41,2.25-6.43,3.32Z"/><path class="cls-1" d="m80.5,17.86l-1.88,2.68c-8.44-2.68-17.9-2.68-26.69,0l-1.88-2.68h-4.88s0,11.52,0,11.52c13.92-4.24,24.94-4.52,40.2,0v-11.52s-4.88,0-4.88,0Z"/></svg>