<?xml version="1.0" encoding="UTF-8"?><svg id="hoko-no-outline" xmlns="http://www.w3.org/2000/svg" viewBox="0 0 455.96 131.02"><defs><style>.cls-1{stroke-width:0px; fill: currentColor;}</style></defs><path class="cls-1" d="m152.31,130.13c2.61-8.49,6.01-22.91,10.2-43.25h-11.17c-.84,3.06-1.95,7.34-3.33,12.85-1.38,5.51-2.4,9.5-3.06,11.96-2.47,8.49-4.66,14.83-6.59,19h-25.93c2.08-7.6,3.99-15.01,5.71-22.24,1.72-7.22,2.92-12.55,3.6-15.98l1.02-5.14h-13.08c2.15-14.3,4.11-26.04,5.87-35.2,3.75-.15,6.48-.22,8.2-.22h4.02l.35-.11c.87-.3,1.29-.78,1.26-1.45l1.79-10.17h30.62l-2.08,11.17c17.23-.15,29.36-.04,36.37.34-1.51,12.37-5.99,38.41-13.44,78.11-14.44.37-24.56.48-30.34.34Zm64.8-91.93c.75-7.25-4.52-13.73-11.77-14.47-5.45-.56-10.47,2.28-12.94,6.81-1.49-4.94-5.83-8.74-11.28-9.3-7.25-.75-13.73,4.52-14.47,11.77s4.52,13.73,11.77,14.47c5.45.56,10.47-2.28,12.94-6.81,1.49,4.94,5.83,8.74,11.28,9.3,7.25.75,13.73-4.52,14.47-11.77Zm-37.37.04c-4.15.9-7.61.44-7.71-1.02-.11-1.46,3.17-3.37,7.32-4.27,4.15-.9,7.61-.44,7.71,1.02.11,1.46-3.17,3.37-7.32,4.27Zm23.81,1.39c-3.93-1.38-6.8-3.66-6.41-5.09.39-1.43,3.89-1.47,7.82-.09,3.93,1.38,6.8,3.66,6.41,5.09s-3.89,1.47-7.82.09Z"/><path class="cls-1" d="m274.78,103.31h-23.24c-.64,3.2-1.39,6-2.26,8.38-.87,2.39-1.95,4.43-3.26,6.15-1.31,1.71-2.52,3.11-3.64,4.19-1.12,1.08-2.71,2.05-4.76,2.91-2.05.86-3.8,1.51-5.26,1.96-1.46.45-3.55,1.01-6.27,1.68-.86.22-2.12.5-3.78.84-1.66.33-5.03.73-10.1,1.17-5.07.45-10.16.56-15.26.33.09-1.34.32-3.39.69-6.15.37-2.76.59-4.51.65-5.25,3.82.3,7.28-.07,10.37-1.12,3.09-1.04,5.47-2.4,7.15-4.08,1.67-1.68,3.07-3.39,4.2-5.14,1.13-1.75,1.83-3.22,2.12-4.41l.56-1.9h-24.03c1.61-10.8,3.08-19.82,4.43-27.04h25.03l1.3-7.38c-6.93,0-12.66-.04-17.19-.11.41-2.75,1.72-10.21,3.94-22.35,3.81-.07,8.26-.26,13.34-.56,5.08-.3,12.72-1.13,22.91-2.51,10.19-1.38,19.57-3.15,28.15-5.31l-4.3,24.36c-4.43,1.86-10.26,3.24-17.49,4.13l-1.77,10.06h22.57l-4.79,27.16Z"/><path class="cls-1" d="m292.2,125.88c-8.03.3-14.61.26-19.76-.11,5.07-6.78,10.54-19.22,16.42-37.32,7.19-.22,13.56-.22,19.11,0-1.02,4.92-2.2,9.52-3.55,13.8-1.35,4.29-2.65,7.77-3.91,10.45-1.26,2.68-2.49,5.05-3.71,7.1-1.22,2.05-2.18,3.52-2.9,4.41-.72.89-1.28,1.45-1.69,1.68Zm49.15-48.05c-3.64,23.17-6.74,40.56-9.31,52.19-10.63.3-19.16.3-25.59,0,2.94-18.77,6.2-36.02,9.79-51.74-8.13.08-16.52.11-25.16.11.61-5.59,1.95-14.04,4.03-25.37,5.53-.07,13.09-.11,22.71-.11.6-3.43,1.14-6.67,1.6-9.72,12.13-.37,21.3-.37,27.49,0l-1.71,9.72c7.44.08,15.38.22,23.84.45-.67,4.62-2,12.63-4.01,24.03-8.7.3-16.58.45-23.66.45Zm4.27,48.05c-.46-.37-.91-1.73-1.35-4.08-.44-2.35-.62-6.52-.53-12.52.09-6,.68-12.94,1.78-20.84,5.63-.22,11.96-.22,19,0-.03.15-.05,1.1-.06,2.85-.01,1.75,0,3.32.01,4.69.02,1.38.05,3.22.09,5.53.04,2.31.12,4.47.25,6.48.13,2.01.32,4.12.56,6.31.24,2.2.58,4.28,1.02,6.26.43,1.97.93,3.71,1.49,5.2-6.03.37-13.45.41-22.26.11Z"/><path class="cls-1" d="m373.42,126.22c.7-5.21,2.5-15.46,5.42-30.73l30.97-.11c.45-2.53.93-5.4,1.46-8.6.53-3.2,1.01-6.07,1.46-8.61l-30.77.22c.18-1.04.66-3.86,1.43-8.44.77-4.58,1.48-8.72,2.13-12.4s1.34-7.62,2.08-11.79c35.98,0,58.77.08,68.35.22-.05.3-.95,5.59-2.69,15.87-1.74,10.28-3.64,21.27-5.7,32.97-2.06,11.7-3.96,22.05-5.7,31.07-2.01,0-6.75.02-14.2.06-7.46.04-16.63.09-27.52.17-10.89.07-19.8.11-26.73.11Z"/><path class="cls-1" d="m18.85,34.66c-.06.09-.56.79-1.52,2.11-.96,1.32-2.22,3.04-3.78,5.17-1.57,2.13-3.04,4.11-4.43,5.94-.16-.09-.71-.39-1.66-.93-.95-.53-2.13-1.18-3.55-1.95-1.42-.77-2.72-1.51-3.91-2.23.21-.21.78-.85,1.71-1.91.93-1.06,2.06-2.35,3.39-3.86,1.33-1.51,2.52-2.84,3.58-3.99.16-.68,1.33-8.38,3.5-23.1.3,0,4.17-.11,11.61-.32-2.14,10.21-3.79,18.57-4.93,25.08Zm10.23,14.04c-.11-.09-.55-.46-1.3-1.12-.76-.66-1.67-1.47-2.73-2.43-1.07-.96-2.06-1.86-2.97-2.71,1.85-10.47,4.23-24.61,7.16-42.44,1.89.13,5.58.19,11.07.19-2.86,11.87-5.82,24.32-8.88,37.34,2.65-2,5.34-3.98,8.07-5.94,1.4,2.43,2.91,5.6,4.51,9.51-.09.04-.97.48-2.62,1.31-1.66.83-3.62,1.82-5.88,2.97-2.27,1.15-4.41,2.25-6.43,3.32Z"/><path class="cls-1" d="m101.42,34.66c-.06.09-.56.79-1.52,2.11-.96,1.32-2.22,3.04-3.78,5.17-1.57,2.13-3.04,4.11-4.43,5.94-.16-.09-.71-.39-1.66-.93-.95-.53-2.13-1.18-3.55-1.95-1.42-.77-2.72-1.51-3.91-2.23.21-.21.78-.85,1.71-1.91.93-1.06,2.06-2.35,3.39-3.86,1.33-1.51,2.52-2.84,3.58-3.99.16-.68,1.33-8.38,3.5-23.1.3,0,4.17-.11,11.61-.32-2.14,10.21-3.79,18.57-4.93,25.08Zm10.23,14.04c-.11-.09-.55-.46-1.3-1.12-.76-.66-1.67-1.47-2.73-2.43-1.07-.96-2.06-1.86-2.97-2.71,1.85-10.47,4.23-24.61,7.16-42.44,1.89.13,5.58.19,11.07.19-2.86,11.87-5.82,24.32-8.88,37.34,2.65-2,5.34-3.98,8.07-5.94,1.4,2.43,2.91,5.6,4.51,9.51-.09.04-.97.48-2.62,1.31-1.66.83-3.62,1.82-5.88,2.97-2.27,1.15-4.41,2.25-6.43,3.32Z"/><path class="cls-1" d="m80.5,17.86l-1.88,2.68c-8.44-2.68-17.9-2.68-26.69,0l-1.88-2.68h-4.88s0,11.52,0,11.52c13.92-4.24,24.94-4.52,40.2,0v-11.52s-4.88,0-4.88,0Z"/></svg>