<?xml version="1.0" encoding="UTF-8"?><svg id="logo" xmlns="http://www.w3.org/2000/svg" viewBox="0 0 709.53 325.87"><defs><style>.cls-1{fill:#4c4948;}.cls-1,.cls-2,.cls-3,.cls-4,.cls-5,.cls-6,.cls-7,.cls-8{stroke-width:0px;}.cls-2{fill:#603be2;}.cls-3{fill:#231815;}.cls-4{fill:#fdfcf3;}.cls-5{fill:#fff;}.cls-6{fill:#eaff40;}.cls-7{fill:#e95d5d;}.cls-8{fill:#00d600;}</style></defs><path class="cls-5" d="m310.03,27.44c-.14-5.35-4.48-9.64-9.83-9.73-8.43-.14-20.99-.21-37.37-.22-.03-.83-.09-1.6-.16-2.3-.51-5.04-4.72-8.9-9.78-8.99-2.55-.04-4.92-.08-7.11-.11-1.63-3.14-4.86-5.26-8.55-5.38-3.57-.11-8.46-.17-14.52-.17-2,0-4.14,0-6.42.02-2.89.02-5.62,1.28-7.51,3.46-.52.6-.96,1.26-1.32,1.96h-.4c-1.36-.76-2.92-1.21-4.58-1.26-1.36-.04-2.79-.07-4.31-.09-1.74-2.65-4.7-4.42-8.09-4.51-2.83-.08-5.81-.12-8.88-.12s-6.28.04-9.58.11c-3.18.07-6,1.63-7.79,4.02l-14.02.29c-1.79.04-3.46.55-4.9,1.41-1.84-2.18-4.55-3.52-7.48-3.56-1.88-.03-3.66-.04-5.36-.04-4.3,0-8.12.09-11.34.28-2.98.17-5.73,1.67-7.49,4.08-.22.3-.42.61-.6.92-.43-1.35-1.16-2.62-2.14-3.69-1.89-2.08-4.58-3.26-7.39-3.26h-18.86c-5.14,0-9.44,3.89-9.95,9-.04.42-.16,1.63-.34,3.63-.83.24-1.62.48-2.38.73-2.29.76-4.16,2.3-5.36,4.26-1.36-.01-2.66-.02-3.9-.02-5.79,0-10.24.13-13.59.39-2.61.21-4.92,1.4-6.57,3.2,0-.12.02-.23.03-.35.2-2.72-.72-5.41-2.55-7.44s-4.41-3.22-7.14-3.3c-4.91-.14-9.48-.21-13.59-.21-3.32,0-6.42.05-9.22.14C4.26,10.76-.03,15.22,0,20.64c.05,8.3.64,18.06,1.76,29.02,0,.05.4,3.49.42,3.56.36,2.55,1,5.59,1.98,9.29,1.04,3.96,2.33,7.47,3.85,10.43,1.71,3.35,5.15,5.46,8.91,5.46.29,0,1.39.01,3.34.04,2.04.02,4.1.04,6.17.04h8.02c2.97,0,5.78-1.32,7.68-3.6,1.88-2.26,2.67-5.24,2.17-8.14,1.64,1.43,3.75,2.33,6.08,2.44.58.03,1.79.09,16.67.09.48,0,.96-.04,1.43-.11-.01.15-.03.3-.04.44-.26,2.75.63,5.49,2.45,7.56,1.83,2.07,4.43,3.3,7.19,3.38,6.43.2,11.86.3,16.13.3,2.05,0,3.98-.62,5.58-1.7,1.39.83,2.99,1.32,4.65,1.39,3.11.14,6.18.22,9.12.22,2.37,0,4.71-.05,6.98-.14,3.51-.14,6.69-2.12,8.37-5.21,2.11-3.87,3.89-8.25,5.3-13.02,1.4-4.75,2.16-7.81,2.46-9.92.24-1.68.41-3.03.54-4.2.17-1.75.26-3.45.28-5.1,3.78-.08,6.46-.14,8.08-.18-.2,1.21-.31,2.44-.33,3.67-.05,3.6.72,6.98,2.27,10.04.54,1.07,1.16,2.07,1.85,2.99-.82,1.47-1.26,3.14-1.26,4.85v5.2c0,4.91,3.55,9.07,8.37,9.87.13.03.28.07.52.14,2.17.6,3.15.81,3.75.93,2.2.43,4.61.64,7.38.64,2.29,0,4.84-.15,7.6-.45,8.55-.92,23.16-5.73,25.97-27.43.4.27.81.52,1.24.72-.23.98-.41,2.03-.53,3.16,0,.08-.02.17-.03.25-.5,5.7,1.2,10.8,4.92,14.73,3.14,3.32,7.71,5.64,13.99,7.1l.17.04c.83.18,2.1.39,5.67.73,2.08.2,4.61.3,7.72.3.98,0,2.01,0,3.11-.03,5.07-.09,9.37-.67,13.14-1.77,3.79-1.11,6.57-4.34,7.1-8.25.24-1.79.27-4.17.08-7.94-.07-1.49-.48-2.91-1.16-4.19.75.18,1.52.28,2.32.28h40.69c5.43,0,9.87-4.34,10-9.77.15-6.6.13-13.79-.08-21.36Z"/><path class="cls-2" d="m16.91,68.4c-1.19-2.33-2.22-5.14-3.08-8.43-.87-3.29-1.45-6-1.75-8.13l-.37-3.19c-1.09-10.69-1.66-20.05-1.71-28.07,6.09-.2,13.49-.17,22.2.07-.4,5.3-.64,10.19-.74,14.67-.1,4.48-.12,7.66-.07,9.54l.15,2.75c.25,4.75,1.21,11.71,2.9,20.87h-8.02c-2.03,0-4.05-.01-6.05-.04-2-.03-3.16-.04-3.45-.04Zm52.57-23.02c-.35,6.19-1.16,10.82-2.45,13.89-9.75,0-15.15-.02-16.19-.07,0-5.74-.45-15.97-1.34-30.67,4.36-.35,11.19-.45,20.5-.3.05,1.83.04,4.17-.04,7.02-.07,2.85-.16,5.26-.26,7.24l-.22,2.9Z"/><path class="cls-2" d="m120.1,70.63c-4.8.2-9.88.17-15.22-.07l2.08-7.57c.35-1.34.66-2.55.93-3.64.27-1.09.53-2.51.78-4.27.25-1.76.38-3.3.41-4.64.02-1.34-.1-2.75-.37-4.23-.27-1.49-.75-2.69-1.45-3.6-.69-.92-1.68-1.63-2.97-2.15-1.29-.52-2.85-.68-4.68-.48-2.03,11.49-3.84,21.78-5.42,30.89-4.21,0-9.48-.1-15.82-.3.4-4.16.85-8.55,1.37-13.18s.95-8.23,1.3-10.8l.45-3.86c-2.38.35-4.56.79-6.53,1.34,0-.59-.04-3.37-.11-8.32-.08-4.95-.11-9.06-.11-12.33,1.19-.4,2.49-.77,3.9-1.11,1.41-.35,2.54-.59,3.38-.74l1.26-.15c.1-1.39.27-3.42.52-6.09.25-2.67.4-4.26.45-4.75h18.86c-.1,1.09-.26,2.28-.48,3.56-.22,1.29-.43,2.3-.63,3.04l-.22,1.11c10,.89,16.97,3.64,20.9,8.24,3.94,4.6,5.46,11.54,4.57,20.79-.1.94-.26,2.19-.48,3.75s-.94,4.39-2.15,8.5c-1.21,4.11-2.71,7.8-4.49,11.06Zm8.91-37.28c-3.27-6.54-5.84-13.49-7.72-20.87,4.26-.25,9.58-.32,15.97-.22,4.26,8.76,7.23,15.67,8.91,20.72-2.18.05-7.9.17-17.15.37Z"/><path class="cls-2" d="m191.42,31.27c.64,10.4.79,17.1.45,20.12-1.34,11.93-7.08,18.44-17.23,19.53-5.05.54-9.06.52-12.03-.07-.54-.1-1.54-.35-2.97-.74-.69-.2-1.21-.32-1.56-.37v-5.2c1.19.05,2.44,0,3.75-.15,1.31-.15,2.34-.32,3.08-.52l1.11-.22c.15-.05.33-.11.56-.19.22-.07.63-.28,1.23-.63s1.1-.72,1.52-1.11c.42-.4.75-.97,1-1.71.25-.74.3-1.53.15-2.38-1.93.3-3.7.31-5.31.04-1.61-.27-2.93-.66-3.97-1.15l-1.56-.74c-1.34-.79-2.41-1.99-3.23-3.6-.82-1.61-1.21-3.4-1.19-5.38.02-1.98.43-3.91,1.23-5.79.79-1.88,2.28-3.54,4.46-4.98,2.18-1.43,4.9-2.38,8.17-2.82l-.07-1.71c-6.14-.05-12.5,0-19.08.15,0-10.05.02-15.79.07-17.23l21.53-.45.3-3.86c6.49-.15,12.48-.15,17.97,0v4.46c4.7,0,8.84.05,12.4.15,0,.45.01,2.64.04,6.57.02,3.94.04,7.17.04,9.69-3.86,0-7.48.1-10.84.3Zm-18.71,12.77c-2.67,0-4.01,1.11-4.01,3.34,0,.99.31,1.81.93,2.45.62.64,1.5.96,2.64.96,2.67,0,4.01-1.21,4.01-3.64-.35-2.08-1.54-3.12-3.56-3.12Z"/><path class="cls-2" d="m252.5,45.23c-.74.05-2.08.07-4.01.07h-4.83c1.04,2.33,1.98,5.03,2.82,8.09-1.78.25-3.5.54-5.16.89-1.66.35-2.86.62-3.6.82l-1.19.37c-1.44,1.04-2.09,2.15-1.97,3.34.12,1.19.71,2.25,1.75,3.19,1.04.94,2.15,1.49,3.34,1.63,3.81.3,6.68.07,8.61-.67.15,2.97.15,5,0,6.09-2.87.84-6.38,1.3-10.51,1.37-4.13.07-7.36,0-9.69-.22-2.33-.22-3.84-.41-4.53-.56-4.26-.99-7.25-2.4-8.99-4.23-1.73-1.83-2.48-4.16-2.23-6.98.2-1.73.53-3.03,1-3.9.47-.87,1.55-1.78,3.23-2.75,1.68-.97,4.26-1.89,7.72-2.79l-1.63-4.08c-6.29.05-11.41.12-15.37.22-.4-5.35-.5-9.55-.3-12.62,6.93-.1,11.48-.2,13.66-.3-.4-1.14-.72-2.55-.96-4.23-6.04.05-10.3.05-12.77,0-.25-2.87-.35-6.88-.3-12.03h10.69c-.1-.49-.22-1.15-.37-1.97-.15-.82-.27-1.51-.37-2.08-.1-.57-.17-1.03-.22-1.37,9.06-.05,15.92,0,20.57.15l.89,5.27c3.96.05,8.94.12,14.93.22.25,2.43.2,6.29-.15,11.58-1.83.05-5.74.07-11.73.07.05.94.14,1.81.26,2.6.12.79.23,1.34.33,1.63l.15.52,11.06.15c.1,2.28.05,6.44-.15,12.47Z"/><path class="cls-2" d="m259.41,48.58c-.25-10-.27-17.03-.08-21.09,18.12,0,31.68.07,40.69.22.2,7.43.22,14.38.07,20.87h-40.69Z"/><path class="cls-5" d="m312.24,81.8c0-2.68-2.12-4.89-4.8-5-3.78-.15-4.77-.17-5.19-.17-.21,0-.36,0-.37,0-2.68.1-4.9.54-6.73,1.32-.85-.67-1.91-1.09-3.08-1.09-.15,0-.31,0-.46,0-.18-.29-.39-.56-.63-.8-.94-.98-2.24-1.53-3.6-1.53h-6.87c-1.9,0-3.54,1.06-4.38,2.62-.52-.19-1.09-.36-1.71-.5-.73-.17-1.51-.25-2.33-.25-.13,0-.27,0-.41,0-.73.02-1.49.09-2.33.2-.19.02-.37.06-.55.11l-.21.05c-.05.01-.23.06-.27.08-.44-.15-.92-.23-1.4-.25-.85-.03-1.87-.04-3.06-.04s-2.46.01-3.94.04c-1.16.02-2.22.46-3.05,1.14-.71-.31-1.45-.56-2.21-.74-1.21-.28-2.51-.43-3.87-.43-2.64,0-4.98.5-7.01,1.46-.83-.72-1.89-1.2-3.07-1.24-3.78-.15-4.77-.17-5.19-.17-.21,0-.36,0-.37,0-3.18.12-5.73.72-7.73,1.8-.3.15-.62.35-.95.57-.22-.16-.42-.32-.65-.46-1.17-.7-2.43-1.22-3.77-1.54-1.21-.28-2.51-.43-3.87-.43-2.72,0-5.12.53-7.18,1.55-.61-.44-1.31-.76-2.09-.89-.47-.08-1.03-.12-2.6-.12-.31,0-.61.03-.91.08-.12.02-.24.05-.37.08-.47-.16-.97-.25-1.48-.27-1.82-.05-3.51-.07-5.02-.07-.77,0-1.49,0-2.18.02-1.19.02-2.27.48-3.12,1.19-.02,0-.03-.02-.05-.03-1.57-.79-3.3-1.19-5.15-1.19l-1.76-.02c-.8-.01-1.68-.02-2.66-.02h-1.46c-1.7.01-2.96.06-3.86.15-2.55.24-4.5,2.37-4.53,4.93-.09,8.64-.06,15.39.08,20.08.08,2.7,2.3,4.84,5,4.84h6.89c2.71,0,4.92-2.15,5-4.85.16-.04.31-.07.45-.11l.13-.03c.17-.03.34-.08.5-.13.48-.15.93-.33,1.37-.54.85.75,1.94,1.24,3.15,1.27,1.2.04,2.4.06,3.62.06s2.43-.02,3.67-.06c2.07-.06,3.8-1.38,4.5-3.21.28.25.55.48.82.67,2.45,1.81,5.52,2.72,9.14,2.72,2.55,0,4.65-.36,6.36-1.09.72.52,1.58.86,2.52.94,1.61.13,3.13.2,4.53.2,2.22,0,4.24-.17,6-.5,2.07-.35,3.59-1.03,4.71-1.85,2.34,1.52,5.19,2.3,8.51,2.3,2.62,0,4.76-.38,6.5-1.15.82.6,1.83.96,2.92.96,3.59,0,6.09-.02,7.63-.05.49-.01.96-.09,1.41-.24.45.14.93.23,1.43.24,1.35.03,2.56.04,3.62.04s2.05-.01,2.85-.04c1.36-.05,2.58-.64,3.45-1.56.91.5,1.95.88,3.2,1.15,1.17.25,2.46.42,3.82.48.73.04,1.57.05,2.53.05.62,0,1.28,0,1.99-.02.34,0,.68-.05,1-.13.21.05.42.09.64.11,1.61.13,3.13.2,4.53.2,2.22,0,4.24-.17,6-.5,5.45-.91,7.1-4.17,7.59-5.98.63-2.22.35-4.02-.1-5.28.36-.7.56-1.49.56-2.3v-6.89Z"/><path class="cls-8" d="m190.3,97.01l-.27.05c-.2.05-.45.11-.76.17-.31.06-.65.12-1.02.19s-.78.11-1.23.13c-.46.03-.89.03-1.3.01.02,1.66.02,3.1,0,4.32h-6.89c-.14-4.63-.17-11.26-.08-19.87.75-.07,1.89-.11,3.42-.12,1.53,0,2.87,0,4.01.01l1.72.03c1.11-.02,2.11.2,3.02.66s1.63,1.06,2.19,1.8c.55.74.98,1.54,1.27,2.39s.44,1.69.44,2.51c0,.77-.07,1.51-.21,2.24-.14.72-.37,1.46-.68,2.21s-.78,1.42-1.39,2-1.35,1.01-2.21,1.27Zm-4.45-5.74v3.43c.95.23,1.71.18,2.29-.16s.91-.92.98-1.74c.12-.98-.18-1.63-.91-1.93-.73-.3-1.52-.17-2.36.4Z"/><path class="cls-8" d="m203.54,91.03l-.11,6.49c-2.36.07-4.68.07-6.97,0-.04-2.7-.05-7.88-.05-15.56,1.99-.04,4.31-.02,6.97.05.02.45.01.92-.01,1.42-.03.5-.05.89-.07,1.18l-.05.4c.77-1.7,1.78-2.66,3.03-2.9.97,0,1.56.02,1.77.05.07,1.04.07,2.6,0,4.69-.82-.14-1.54-.1-2.15.12-.61.22-1.06.55-1.34.99-.29.44-.51.88-.68,1.34s-.27.85-.31,1.19l-.03.51Z"/><path class="cls-8" d="m225.69,90.5c-.7.02-1.78.04-3.25.07-1.47.03-3.33.07-5.58.12-.05.61,0,1.15.17,1.64s.4.84.68,1.07.58.42.87.58c.29.15.55.25.76.28l.32.05c.07-.04.3-.04.68,0,.38.04.85-.06,1.39-.3.54-.23.92-.59,1.11-1.07h2.47c-.21,1.54-.85,2.72-1.92,3.54-1.06.82-2.86,1.23-5.38,1.23s-4.6-.58-6.17-1.74c-1.57-1.16-2.43-3.08-2.57-5.74-.14-2.97.6-5.15,2.24-6.54,1.64-1.4,3.84-2.09,6.61-2.09.98,0,1.89.1,2.72.29.83.2,1.61.51,2.33.95.72.44,1.3,1.06,1.74,1.88s.69,1.78.76,2.91l.03.27c0,.16,0,.35.01.58s.01.46.01.72,0,.5-.01.74-.03.42-.07.56Zm-6.44-4.99c-.75-.04-1.35.22-1.8.78-.45.55-.67,1.33-.67,2.33l4.34-.11c.29-.84.26-1.55-.07-2.12-.33-.57-.93-.87-1.81-.88Z"/><path class="cls-8" d="m237.54,88.54c-.52.2-.75.52-.7.96.05.45.29.77.7.97,1.39.63,2.26,1.29,2.59,1.98.33.7.36,1.52.09,2.47-.34,1.27-1.56,2.07-3.65,2.41-2.43.46-5.52.54-9.25.24-.07-.7-.11-1.58-.11-2.66.46.13.97.21,1.53.27.55.05.99.08,1.31.08h.51c1.82-.11,2.81-.46,2.95-1.05.07-.29,0-.52-.19-.71-.2-.19-.52-.36-.96-.52-.14-.04-.38-.1-.71-.19-.33-.09-.66-.19-.98-.29-.32-.11-.63-.22-.94-.35-1.66-.7-2.54-1.84-2.63-3.43-.21-2.88.65-4.83,2.6-5.85,1.36-.73,3.23-1.14,5.61-1.23.32-.02,2.05.04,5.18.16v6.89c-.52-.16-1.02-.25-1.51-.28-.49-.03-.85-.02-1.07.03-.22.04-.34.08-.36.09Z"/><path class="cls-8" d="m258.31,90.5c-.7.02-1.78.04-3.25.07-1.47.03-3.33.07-5.58.12-.05.61,0,1.15.17,1.64s.4.84.68,1.07.58.42.87.58c.29.15.55.25.76.28l.32.05c.07-.04.3-.04.68,0,.38.04.85-.06,1.39-.3.54-.23.92-.59,1.11-1.07h2.47c-.21,1.54-.85,2.72-1.92,3.54-1.06.82-2.86,1.23-5.38,1.23s-4.6-.58-6.17-1.74c-1.57-1.16-2.43-3.08-2.57-5.74-.14-2.97.6-5.15,2.24-6.54,1.64-1.4,3.84-2.09,6.61-2.09.98,0,1.89.1,2.72.29.83.2,1.61.51,2.33.95.72.44,1.3,1.06,1.74,1.88s.69,1.78.76,2.91l.03.27c0,.16,0,.35.01.58s.01.46.01.72,0,.5-.01.74-.03.42-.07.56Zm-6.44-4.99c-.75-.04-1.35.22-1.8.78-.45.55-.67,1.33-.67,2.33l4.34-.11c.29-.84.26-1.55-.07-2.12-.33-.57-.93-.87-1.81-.88Z"/><path class="cls-8" d="m270.65,97.47l-.05-6.95c0-1.11-.44-1.72-1.31-1.82-.54-.07-.97.06-1.3.39-.33.33-.5.82-.5,1.46.04,1.23.07,3.54.11,6.92-1.5.04-4.01.05-7.51.05-.05-4.22-.08-9.52-.08-15.9,2.88-.05,5.12-.05,6.73,0,0,.71.02,1.43.07,2.13.04.71.09,1.24.15,1.6l.05.54c.2-.75.44-1.41.72-1.97s.55-.99.8-1.27c.25-.29.49-.51.72-.68s.41-.27.54-.31l.21-.05c.66-.09,1.27-.14,1.82-.16.55-.02,1.05.02,1.48.12.43.1.81.21,1.15.33.34.13.63.33.87.62s.45.55.62.79c.17.24.31.59.43,1.03s.21.84.27,1.18c.06.34.11.81.13,1.41.03.6.04,1.1.05,1.52s.01.97.01,1.69v7.35c-1.5.05-3.57.05-6.2,0Z"/><path class="cls-8" d="m292.02,89.93c-.16,0-.81,0-1.94.01s-2.08.01-2.83.01c-.05,1.79.34,3.02,1.19,3.7.85.68,2.02.98,3.53.91l-.05,3c-1.68.04-3.07.03-4.17-.03s-2.1-.18-3-.38c-.9-.2-1.61-.46-2.11-.79-.5-.33-.92-.8-1.25-1.41-.33-.61-.55-1.3-.64-2.08-.1-.78-.14-1.76-.12-2.94-.68,0-1.35,0-2.01.03-.09-3.38-.1-6.11-.03-8.18h1.88c.04-.88.05-1.63.05-2.25h6.87l-.08,2.28c1.61.04,3.2.05,4.77.05,0,3.86-.02,6.54-.05,8.05Z"/><path class="cls-8" d="m304.29,88.54c-.52.2-.75.52-.7.96.05.45.29.77.7.97,1.39.63,2.26,1.29,2.59,1.98.33.7.36,1.52.09,2.47-.34,1.27-1.56,2.07-3.65,2.41-2.43.46-5.52.54-9.25.24-.07-.7-.11-1.58-.11-2.66.46.13.97.21,1.53.27.55.05.99.08,1.31.08h.51c1.82-.11,2.81-.46,2.95-1.05.07-.29,0-.52-.19-.71-.2-.19-.52-.36-.96-.52-.14-.04-.38-.1-.71-.19-.33-.09-.66-.19-.98-.29-.32-.11-.63-.22-.94-.35-1.66-.7-2.54-1.84-2.63-3.43-.21-2.88.65-4.83,2.6-5.85,1.36-.73,3.23-1.14,5.61-1.23.32-.02,2.05.04,5.18.16v6.89c-.52-.16-1.02-.25-1.51-.28-.49-.03-.85-.02-1.07.03-.22.04-.34.08-.36.09Z"/><path class="cls-2" d="m702.57,75.81c-5.11-4.4-9.86-8.84-14.12-13.22-3.77-3.87-8.94-6.06-14.34-6.06-.76,0-2.77.03-17.85.4-4.37.11-8.59,1.64-12,4.37-.9.72-1.61,1.29-16.07,14.93-4,3.78-6.27,9.04-6.27,14.55,0,.79.03,1.6.24,4.52.12,1.69.24,3.91.36,6.59.12,2.68.18,5.24.18,7.61,0,.1,0,.2,0,.29h-42.63c-11.05,0-20,8.95-20,20,0,11.97.1,22.94.3,32.68-1.02.07-2.05.13-3.07.2-.25.02-.49.04-.73.07-1.05-.17-2.12-.26-3.2-.26-.94,0-1.89.07-2.83.2-.21.03-.42.06-.64.09.08-1.08.15-2.19.23-3.32.6-8.88,1.09-17.15,1.43-24.57.26-5.67-1.9-11.19-5.94-15.17-.08-.08-.87-.83-2.39-2.28-1.35-1.28-2.94-2.78-4.76-4.5-2.19-2.07-4.14-3.79-5.97-5.27-2.34-1.9-5.06-3.23-7.96-3.92-2.2-8.26-9.56-14.44-18.49-14.81-4.88-.2-10.32-.31-16.19-.32.38-1.98.47-4.03.22-6.08l-4.55-38.71c-.62-5.27-3.3-10.08-7.47-13.36-3.55-2.8-7.92-4.3-12.39-4.3-.78,0-1.56.04-2.33.14l-16.39,1.92c-5.48.64-10.41,3.52-13.67,7.87-5.52-.55-11.1-.83-16.7-.83-19.11,0-38.48,3.28-56.78,9.55-3.6-3.03-8.16-4.69-12.87-4.69-.78,0-1.56.04-2.33.14l-16.39,1.92c-5.27.62-10.08,3.3-13.36,7.47-3.29,4.16-4.79,9.46-4.17,14.73l4.55,38.71c.04.31.09.62.14.92-.27-.01-.55-.04-.82-.04h-13.56c-8.55,0-19.43.03-33.27.1-12.8.06-25.2.1-36.87.1-5.52,0-10.8,2.28-14.58,6.31-3.78,4.03-5.73,9.44-5.38,14.95.82,13.04,1.71,24.17,2.65,33.16-2.24-.84-4.62-1.31-7.06-1.31-.52,0-1.46.01-9.44.21-5.14.12-10.03,2.22-13.66,5.85-.06.06-.14.14-.23.23-2.62-7.58-9.65-13.13-18.1-13.46l-24.17-.95c-.67-1.55-1.55-3.04-2.62-4.4-7.88-10.05-17.54-21.15-28.7-32.99-3.78-4.01-9.04-6.28-14.55-6.28-2.99,0-24.92.12-69,.39-11,.07-19.88,9-19.88,20,0,7.54.2,20.23.59,37.71.12,5.54,2.54,10.78,6.68,14.47,3.68,3.28,8.43,5.08,13.32,5.08.61,0,1.21-.03,1.82-.08,9.98-.91,20.35-1.77,31.04-2.58-.02.08-.04.15-.06.22-1.82,6.67-3.78,13.1-5.85,19.18l-3.45,3.77c-4.38,4.51-10.46,10.71-18.05,18.43-7.66,7.79-15.01,15.08-21.85,21.66-3.87,3.72-6.08,8.84-6.13,14.21-.05,5.37,2.05,10.53,5.85,14.33.96.96,2.12,1.97,6.04,5.07,2.46,1.94,5.59,4.43,9.4,7.46,3.34,2.66,6.33,5.25,8.88,7.69,3.75,3.59,8.72,5.55,13.82,5.55,1.17,0,2.35-.1,3.53-.31,4.44-.8,8.43-3.06,11.37-6.34.51-.48,1.79-1.69,4.86-4.47,4.37-3.95,9.52-8.96,15.32-14.9.65-.66,1.29-1.33,1.94-2,1.57,1.87,3.47,4.07,5.76,6.65,3.57,4.03,6.69,7.9,9.27,11.49,3.43,4.77,8.79,7.79,14.65,8.26.53.04,1.06.06,1.59.06,4.71,0,9.27-1.66,12.87-4.69.38-.26,1.21-.81,2.88-1.85,2.71-1.69,5.94-3.77,9.63-6.19,3.06,3.28,7.21,5.56,11.94,6.2l7.79,1.05c2.82.38,5.25.7,7.3.95,3.28.39,4.26.49,5.6.49,3.95,0,7.65-1.15,10.77-3.14,3.26,2.26,7.2,3.55,11.35,3.55.85,0,1.71-.05,2.57-.17,2.77-.36,5.59-.75,8.37-1.17,2.74-.41,5.09-.77,7.04-1.08,1.15-.18,1.92-.3,2.32-.36,4.04-.5,7.82-2.25,10.85-4.96l1.68-.03c.13,0,.26,0,.4-.01,3.1-.12,7.89-.22,14.24-.29,3.2-.03,6.38-.05,9.55-.05s6.3.02,9.42.05c.07,0,.14,0,.21,0,4.97,0,9.54-1.84,13.06-4.88,1.88,1.6,3.18,2.76,4.07,3.6,3.85,3.62,8.78,5.43,13.7,5.43s10.15-1.92,14.04-5.76c5.53-5.45,10.57-10.66,15.12-15.61,1.35,2.92,2.76,5.99,3.66,7.94,3.36,7.29,10.58,11.63,18.17,11.63,2.44,0,4.93-.45,7.33-1.4,8.83-3.48,18.81-7.82,29.67-12.89,3.5-1.63,6.44-4.24,8.49-7.51.66-1.05,1.16-2.03,2.35-4.55.69-1.46,1.69-3.61,3-6.43,1.18-2.54,2.35-5.01,3.5-7.42.3.27.59.54.89.81,3.8,3.42,8.58,5.12,13.36,5.12,2.4,0,4.8-.43,7.07-1.29.84,3.18,1.68,6.25,2.52,9.16,1.08,3.79,3.26,7.17,6.27,9.73l13,11.06c3.65,3.11,8.26,4.77,12.96,4.77,1.48,0,2.96-.16,4.43-.5,21.2-4.82,26.16-5.88,27.23-6.09,4.99-.97,9.43-3.8,12.41-7.92,1.94-2.68,4.12-5.93,6.6-9.83,3.07-.09,7.22-.17,12.42-.22,3.21-.03,6.39-.05,9.55-.05s6.3.02,9.42.05c.07,0,.14,0,.21,0,1.19,0,2.36-.12,3.5-.32,8.08,10.03,11.43,13.61,13.25,15.43,3.9,3.9,9.02,5.86,14.15,5.86,4.8,0,9.61-1.72,13.43-5.18.59-.53,1.16-1.06,1.73-1.58,3.25,4.14,6.94,8.54,11.12,13.27,3.91,4.43,9.42,6.75,14.99,6.75,3.58,0,7.18-.96,10.42-2.93,24.68-15.07,42.46-26.48,54.36-34.87,3.73-2.63,6.46-6.46,7.71-10.85,10.31-36.1,18.28-63.28,23.68-80.76,2.19-7.09.28-14.8-4.97-20.05-2.58-2.58-6.19-6.12-10.8-10.59.94-.84,1.87-1.7,2.78-2.56,1.4-1.32,3.03-2.95,4.98-4.97,2.19-2.28,4.18-4.58,5.92-6.83,2.57-3.33,4.01-7.38,4.15-11.58.02-.38.07-1,.14-1.89.12-1.57.31-3.78.57-6.64.28-3.2.5-6.41.64-9.53.28-6.14-2.28-12.07-6.94-16.08ZM124.99,209.48l1.24-3.46,3.44-.07c.13,0,.26,0,.39-.01,3.14-.13,7.94-.22,14.25-.29.8,0,1.58,0,2.38-.01-.94,6.09-1.95,12.41-3,18.92-.22,1.35-.43,2.66-.64,3.95-5.31-5.54-11.33-11.89-18.05-19.04Zm122.67-30.85c5.94-.42,13.04-.92,21.28-1.5-.87,1.59-1.75,3.18-2.62,4.76-3.08-1.76-6.5-2.63-9.9-2.63-5.64,0-11.24,2.37-15.19,6.98-2.34,2.72-4.87,5.93-7.54,9.53.15-1.49.37-4.13.79-9.53.17-2.25-.04-4.47-.59-6.6.82,0,1.64-.06,2.46-.16.43-.04,2.54-.24,11.33-.86Zm209.4-5.02c-4.15.29-8.15.61-11.96.97-.02-.24-.04-.47-.06-.71-.45-5.52-.92-10.76-1.39-15.6,5.65-1.34,10.88-3.68,15.51-6.85,1.43,3.04,3.59,5.64,6.25,7.6-.68,5.53-1.28,10.24-1.78,14.14-1.94.13-4.12.28-6.57.45Z"/><path class="cls-5" d="m459.48,111.55c-.76-14.68-13.28-25.96-27.96-25.19-11.04.58-20.15,7.8-23.67,17.59-4.51-9.37-14.33-15.61-25.37-15.04-14.68.76-25.96,13.28-25.19,27.96.76,14.68,13.28,25.96,27.96,25.19,11.04-.57,20.15-7.8,23.67-17.59,4.51,9.37,14.33,15.61,25.37,15.04,14.68-.76,25.96-13.28,25.19-27.96Z"/><ellipse class="cls-3" cx="383.78" cy="118.04" rx="15.53" ry="5.29" transform="translate(-16.19 153.27) rotate(-22.13)"/><ellipse class="cls-3" cx="433.49" cy="113.23" rx="5.4" ry="15.22" transform="translate(239.02 516.85) rotate(-78.91)"/><path class="cls-6" d="m116.48,276.47c-2.99-4.16-6.51-8.52-10.54-13.07-4.03-4.55-6.83-7.87-8.39-9.95-1.17-1.43-2.99-3.32-5.46-5.66-2.47-2.34-3.9-3.77-4.29-4.29l-1.95-2.54-.58-.78-.39.2c-5.07,6.12-10.37,12-15.9,17.66-5.53,5.66-10.34,10.34-14.44,14.05-4.1,3.71-6.21,5.69-6.34,5.95-2.99-2.86-6.41-5.82-10.24-8.88-3.84-3.05-6.99-5.56-9.46-7.51-2.47-1.95-3.9-3.12-4.29-3.51,7.02-6.76,14.44-14.11,22.24-22.05,7.8-7.93,13.92-14.18,18.34-18.73l6.44-7.02c2.73-7.67,5.27-15.8,7.61-24.39s4.03-15.28,5.07-20.1l1.56-7.22c-20.68,1.3-40.26,2.8-58.73,4.49-.39-17.43-.59-29.85-.59-37.27,42.93-.26,65.88-.39,68.88-.39,10.8,11.45,19.97,21.98,27.51,31.61l-20.49,57.17c18.34,19.64,32.26,34.21,41.75,43.71-3.38,2.6-7.19,5.3-11.41,8.1-4.23,2.8-7.8,5.1-10.73,6.93-2.93,1.82-4.65,2.99-5.17,3.51Z"/><path class="cls-6" d="m164.27,170.06c0,2.48-.07,5.03-.2,7.65-.14,2.62-.27,4.6-.4,5.94l-.2,2.01c-6.37-.07-12.83-.07-19.37,0-6.54.07-11.49.17-14.84.3l-4.93.1-1.01-17.61,40.95,1.61Z"/><path class="cls-6" d="m174.49,272.43c-.2,0-1.27-.12-3.22-.35-1.95-.24-4.28-.54-6.99-.91-2.72-.37-5.32-.72-7.8-1.06,0-.2.67-4.31,2.01-12.33,1.34-8.01,2.98-18.03,4.93-30.03,1.94-12.01,3.69-23.21,5.23-33.61.33,0,1.19.08,2.57.25,1.37.17,3.1.37,5.18.6,2.08.24,3.99.45,5.73.65-.8,6.57-3.35,32.16-7.65,76.77Zm39.24-78.18c-1.27,1.54-2.68,3.05-4.23,4.53-1.54,1.48-2.55,2.38-3.02,2.72-1.14,0-2.36-.02-3.67-.05-1.31-.03-2.4-.05-3.27-.05h-1.51c-2.48-2.01-5.07-4.36-7.75-7.04-.14-5.37-.27-8.62-.4-9.76,3.82-3.49,6.37-5.87,7.65-7.14,5.5-.13,8.48-.2,8.95-.2,2.55,2.55,5.23,5.03,8.05,7.45-.47,6.04-.74,9.22-.8,9.56Zm-17.1,78.58c-.07-.34-.3-2.48-.7-6.44-.4-3.96-.86-8.4-1.36-13.33-.5-4.93-1.14-11.2-1.91-18.82-.77-7.61-1.53-14.94-2.26-21.98,3.35-.27,7.51-.77,12.48-1.51,2.75,11,6.61,30.82,11.57,59.46-.07,0-1.06.15-2.97.45-1.91.3-4.21.65-6.89,1.06-2.68.4-5.33.77-7.95,1.11Zm3.42-85.92l-.2,5.63c2.68,0,4.02-.03,4.02-.1l.5-5.53h-4.33Z"/><path class="cls-6" d="m264.04,249.18c0,2.48-.07,5.03-.2,7.65-.14,2.62-.27,4.6-.4,5.94l-.2,2.01c-6.37-.07-12.83-.07-19.37,0-6.54.07-11.49.17-14.84.3l-4.93.1-1.01-17.61,40.95,1.61Z"/><path class="cls-6" d="m292.9,227.55c6.5,4.03,14.44,9.76,23.8,17.17-6.12,7.29-13.66,15.35-22.63,24.19-6.51-6.12-25.17-21.01-56-44.68.26-.39,1.4-2.05,3.41-4.98,2.02-2.93,4.42-6.31,7.22-10.15,2.8-3.83,5.37-7.12,7.71-9.85l15.8,13.07c4.94-8.71,10.05-17.88,15.32-27.51,5.27-9.62,9.33-17.1,12.19-22.44l4.1-8c-8.98.78-18.96,1.56-29.95,2.34-10.99.78-20.19,1.43-27.61,1.95-7.41.52-11.58.85-12.49.98-1.04-9.23-2.02-21.07-2.93-35.51,11.32,0,23.64-.03,36.97-.1,13.33-.06,24.39-.1,33.17-.1h13.56c7.41,7.16,16.26,16.39,26.54,27.71-.39.52-2.96,4.58-7.71,12.2-4.75,7.61-10.93,17.4-18.54,29.36-7.61,11.97-14.93,23.41-21.95,34.34Z"/><path class="cls-6" d="m348.83,217.78c-13.57,3.85-22.47,6.24-26.69,7.17-1.89-7.69-3-12.89-3.33-15.61,3.7-.77,7.71-1.58,12.03-2.45,4.32-.86,7.9-1.58,10.73-2.14,2.84-.57,4.45-.9,4.85-1,.4,1.88.78,3.88,1.13,6,.36,2.12.65,3.97.88,5.56.23,1.59.36,2.41.39,2.47Zm32.75,20.01c-1.26,2.62-2.53,5.32-3.83,8.1-1.29,2.78-2.28,4.9-2.96,6.34-.68,1.44-1.08,2.27-1.21,2.47-10.53,4.92-20.04,9.05-28.54,12.41-4.67-10.12-7.07-15.34-7.2-15.64,4.35-1.79,8.9-3.57,13.67-5.33,4.77-1.76,8.43-3.06,10.99-3.91l3.8-1.37c-6.41-25.08-11.54-43.56-15.38-55.45,2.01-.6,4.23-1.23,6.66-1.87,2.43-.64,4.57-1.16,6.42-1.54,1.85-.38,2.84-.6,2.96-.66,2.28,7.74,4.58,16.15,6.92,25.26,2.34,9.1,4.18,16.52,5.52,22.24,1.34,5.73,2.07,8.71,2.18,8.95Z"/><path class="cls-6" d="m412.78,192.09c-8.94.24-14.77.6-17.5,1.08.3,2.15.51,5.1.65,8.87-6.48.98-11.96,1.63-16.45,1.94-1.55-27.03-2.34-40.9-2.37-41.63,4.14-1.26,8.74-2.7,13.78-4.33,5.05-1.63,9.24-2.98,12.58-4.07,3.34-1.08,5.14-1.65,5.42-1.7,2.05,1.14,4.23,2.27,6.52,3.37,2.3,1.11,4.2,2,5.72,2.69,1.52.68,2.36,1.06,2.54,1.13.5,5.07.98,10.43,1.44,16.07.46,5.64.86,10.78,1.2,15.4.34,4.63.65,8.83.94,12.6.29,3.77.52,6.88.69,9.34.18,2.46.26,3.76.26,3.91-1.3,1.54-2.79,3.27-4.47,5.19-1.68,1.93-3.15,3.56-4.43,4.9-1.28,1.34-2.5,2.64-3.66,3.9-1.17,1.26-1.83,1.96-1.99,2.1-4.54-4.08-8.09-7.82-10.64-11.24,2.08-1.59,4.13-3.31,6.13-5.16,2-1.85,3.51-3.29,4.52-4.33l1.38-1.61c-.24-2.83-.65-6.44-1.24-10.81-.59-4.37-.93-6.9-1.02-7.6Zm-19.75-19.53l.96,8.83c4.6-.73,10.41-1.71,17.44-2.93l-1.39-10.52-17.02,4.62Z"/><path class="cls-6" d="m491.45,247.72c-3.19,5.14-5.89,9.25-8.11,12.32-2.11.41-11.4,2.48-27.87,6.22l-13-11.06c-1.71-5.98-3.43-12.52-5.15-19.62-1.72-7.1-3.05-12.72-3.99-16.85l-1.29-6.12c1.45-2.41,3.16-5.1,5.13-8.07,1.97-2.97,3.56-5.33,4.77-7.09l1.92-2.66c4.55-.46,9.41-.87,14.59-1.23,5.18-.36,9.21-.63,12.11-.83l4.36-.19c2.12,1.77,4.51,3.71,7.16,5.83,2.65,2.12,4.55,3.65,5.69,4.59,1.14.94,1.83,1.53,2.07,1.76l1.62,42.99Zm-42.41-35.3l7.23,37.91,20.87-4.08c-.91-8.63-1.62-16.06-2.11-22.31-.5-6.25-.76-10.32-.79-12.22l-.15-2.83-25.04,3.52Z"/><path class="cls-6" d="m538.56,226.09c0,2.49-.07,5.04-.2,7.65-.14,2.62-.27,4.6-.4,5.94l-.2,2.01c-6.38-.07-12.84-.07-19.39,0-6.55.07-11.5.17-14.85.3l-4.93.1-1.01-17.62,40.99,1.61Z"/><path class="cls-6" d="m527.86,189.69c-5.83-.14-11.44-.57-16.8-1.31l6.44-48.19c-4.9.2-9.89.54-14.99,1.01-3.02,22.2-4.96,36.58-5.83,43.16-3.02,0-7.75-.37-14.18-1.11.07-.47.39-2.92.96-7.34.57-4.43,1.26-9.91,2.06-16.45.8-6.54,1.54-12.49,2.21-17.86-4.63.67-8.12,1.11-10.46,1.31-.8-8.25-1.38-13.68-1.71-16.3l13.08-.6c.07-2.35.13-4.91.2-7.7.07-2.78.13-5,.2-6.64.07-1.64.1-2.67.1-3.07,5.9,0,11.27.1,16.1.3,0,.34-.1,1.24-.3,2.72-.2,1.48-.45,3.44-.75,5.88-.3,2.45-.55,4.81-.75,7.09,2.15-.07,4.53-.22,7.14-.45,2.62-.23,4.78-.45,6.49-.65,1.71-.2,2.67-.3,2.87-.3,1.41,1.14,3.02,2.57,4.83,4.28,1.81,1.71,3.39,3.2,4.73,4.48,1.34,1.27,2.04,1.95,2.11,2.01-.34,7.24-.8,15.29-1.41,24.14-.6,8.85-1.14,16.21-1.61,22.08-.47,5.87-.7,9.04-.7,9.51Z"/><path class="cls-6" d="m539.52,209.75c-.58-2.69-2.55-11.06-5.91-25.09,6.44-.48,13.03-1.2,19.76-2.16.19,2.98,1.25,11.44,3.17,25.38-.39,0-2.74.27-7.07.79-4.33.53-7.64.89-9.95,1.08Zm52.78,30.72c-5.48,5.48-13.37,12.89-23.65,22.21-2.31-2.31-6.25-6.92-11.83-13.85,6.92-5.29,13.12-10.58,18.6-15.86,5.19-15.58,10.19-34.47,15-56.68,2.79.48,9.66,1.93,20.62,4.33,0,.1-1.03,3.56-3.1,10.38-2.07,6.83-4.54,14.85-7.43,24.09-2.88,9.23-5.62,17.69-8.22,25.38Zm-13.41-33.17c-3.66,0-9.33.29-17.02.87-.1-.48-.29-1.99-.58-4.54-.29-2.55-.67-5.82-1.15-9.81-.48-3.99-.96-7.72-1.44-11.18,6.83-.48,13.7-.91,20.62-1.3-.29,4.62-.43,13.27-.43,25.96Z"/><path class="cls-6" d="m663.19,241.8c-11.45,8.07-29.2,19.45-53.27,34.15-7.94-8.98-14.05-16.78-18.34-23.41,6.63-4.29,13.95-8.84,21.95-13.66,8-4.81,14.27-8.58,18.83-11.32l7.02-3.9c2.21-8.19,4.45-17.43,6.73-27.71,2.27-10.27,4.06-18.54,5.37-24.78l1.76-9.37c-43.19,2.47-67.45,3.9-72.78,4.29-.26-10.66-.39-22.76-.39-36.29h75.12c15.61,14.96,26.21,25.24,31.8,30.83-5.46,17.69-13.4,44.75-23.8,81.17Zm24.98-132.48c-1.3,1.69-2.8,3.41-4.49,5.17-1.69,1.76-3.12,3.19-4.29,4.29-1.17,1.11-2.31,2.15-3.42,3.12-1.11.98-1.73,1.53-1.85,1.66-2.21,0-4.58-.03-7.12-.1-2.54-.06-4.65-.1-6.34-.1h-2.93c-6.77-5.33-11.77-9.95-15.02-13.85,0-2.73-.07-5.56-.2-8.49-.13-2.93-.26-5.3-.39-7.12-.13-1.82-.2-2.86-.2-3.12,9.23-8.71,14.18-13.33,14.83-13.85,10.66-.26,16.45-.39,17.37-.39,4.68,4.81,9.82,9.63,15.41,14.44-.13,2.86-.33,5.76-.58,8.68-.26,2.93-.46,5.2-.59,6.83-.13,1.63-.19,2.57-.19,2.83Zm-26.54-14.05l-.39,10.93c5.2,0,7.8-.06,7.8-.2l.98-10.73h-8.39Z"/><path class="cls-4" d="m449.3,48.07l-5.26,9.77c-29.41-5.69-61.24-1.96-89.72,10.54l-7.38-8.28-16.39,1.92,4.55,38.71c45.11-19.74,82.04-25.05,135.13-15.87l-4.55-38.71-16.39,1.92Z"/><path class="cls-7" d="m386.92,75.69l-5.79-2.63c3.26-7.18,9.88-12.01,17.7-12.93,7.82-.92,15.38,2.25,20.21,8.48l-5.02,3.9c-3.46-4.45-8.86-6.72-14.45-6.06-5.59.66-10.32,4.11-12.65,9.25Z"/><path class="cls-7" d="m469,74.37c-2.91-1.49-5.05-4.35-5.46-7.83-.11-.93-.08-1.85.05-2.74.96,1.51,2.62,2.5,4.47,2.58l-1.85-15.76c-3.71,1.86-6.57,5.07-8.03,8.9l-14.2-.25-.17-1.48c-2.16-.42-4.34-.76-6.53-1.08l.29,2.44-2.86-.05-.21.02c-3.08.36-7.43,2.96-6.76,8.65.64,5.42,4.99,10.48,5.48,11.04l4.77-4.21c-.91-1.03-3.58-4.63-3.93-7.57-.06-.52-.15-1.3,1.06-1.56l3.21.06,1.83,15.56c2.13.15,4.28.32,6.47.53l-1.88-15.98,12.39.22c.01.47.05.94.1,1.41.83,7.07,6.05,12.55,12.6,14.1l-.82-7.01Z"/><path class="cls-7" d="m361.4,74.64l3.64-.94c1.24-.02,1.33.75,1.39,1.28.34,2.92-1.38,6.97-2.07,8.27l5.61,2.99c.35-.66,3.41-6.58,2.77-12.01-.67-5.69-5.5-7.21-8.58-6.85l-.21.02-3.31.85-.28-2.39c-2.03.79-4.05,1.61-6.05,2.49l-.07-.07.18,1.57-13.22,3.4c-2.36-3.47-6-5.95-10.15-6.86l1.86,15.87c1.9-.44,3.39-1.83,4.01-3.6.34.83.58,1.72.69,2.65.42,3.59-1.11,6.96-3.74,9.08l.82,6.95c6.16-2.97,10.08-9.6,9.24-16.77-.06-.47-.14-.94-.23-1.4l11.47-2.95,1.86,15.84c2.06-.72,4.12-1.4,6.16-2.05l-1.81-15.39Z"/><path class="cls-1" d="m317.62,320.56c-1.12-.02-2.26-.02-3.44,0-.06-6.49-.19-12.9-.38-19.21,1.27,0,2.68-.02,4.22-.05-.27,6.84-.4,13.26-.4,19.26Z"/><path class="cls-1" d="m329.34,320.68l-3.77-.09c-.39-.88-.8-1.82-1.21-2.82s-.73-1.78-.93-2.35l-.33-.85-.09,6.04-2.92.02c-.03-5.72-.16-12.17-.38-19.36l3.84.02-.33,9.81c.88-1.67,1.65-3.25,2.31-4.76,1.1.35,2.18.78,3.25,1.3-.49.58-1.07,1.3-1.73,2.17-.67.87-1.21,1.58-1.64,2.15l-.64.85c.82,1.75,1.63,3.35,2.43,4.81l2.36-.07-.21,3.13Z"/><path class="cls-1" d="m339.12,320.19l-4.6,1.04c-.96-.79-2.03-1.53-3.21-2.24-.14-1.87-.32-4.02-.54-6.44.85-.64,1.86-1.37,3.04-2.17.46.05.98.11,1.57.19.59.08,1.06.14,1.4.19l.52.05.14-1.63-5.09.24c-.09-.82-.17-1.84-.21-3.06h5.52c1.02.83,1.96,1.62,2.81,2.36-.17,1.56-.33,3.1-.46,4.64-.13,1.54-.22,2.69-.27,3.44l-.07,1.16c.31.11.92.23,1.82.35l-.71,2.81-1.65-.92Zm-5.09-6.91c.05,1.67.15,3.35.31,5.04,1.23-.16,2.13-.27,2.71-.35.05-1.41.09-2.96.14-4.64l-3.16-.05Z"/><path class="cls-1" d="m352.58,309.39c.03.55.05,1.23.07,2.05-1.37-.02-2.56-.05-3.58-.12,0-.52,0-1.08.02-1.7-.77.02-1.71.06-2.81.14,0,1.12.02,2.04.05,2.76.86.08,1.78.07,2.73-.02,1.04.8,2.11,1.61,3.23,2.43-.06.96-.16,2.03-.28,3.21-1.07,1.01-2.02,1.85-2.85,2.55-.97.02-2.07.03-3.28.05-1.12-1.01-2.04-1.86-2.78-2.57-.06-.57-.11-1.08-.14-1.56l3.32-.05c.02.47.02.94.02,1.39.83-.02,1.73-.03,2.69-.05l.05-2.45-2.69-.05c-.52-.38-1.06-.75-1.63-1.12-.57-.37-1.01-.65-1.32-.84l-.47-.26c-.05-1.32-.08-2.47-.09-3.46,1.19-1.3,2.3-2.39,3.32-3.25,1.05-.03,2.11-.07,3.18-.12,1.27,1.29,2.35,2.3,3.23,3.04Z"/><path class="cls-1" d="m363.74,320.68l-3.77-.09c-.39-.88-.8-1.82-1.21-2.82s-.73-1.78-.93-2.35l-.33-.85-.09,6.04-2.92.02c-.03-5.72-.16-12.17-.38-19.36l3.84.02-.33,9.81c.88-1.67,1.65-3.25,2.31-4.76,1.1.35,2.18.78,3.25,1.3-.49.58-1.07,1.3-1.73,2.17-.67.87-1.21,1.58-1.64,2.15l-.64.85c.82,1.75,1.63,3.35,2.43,4.81l2.36-.07-.21,3.13Z"/><path class="cls-1" d="m374.6,318.23c-.31.41-.67.82-1.07,1.24-.4.42-.73.73-.98.96l-.35.31-3.65.26-2.97-2.62-.45-8.56c.41-.53.85-1.08,1.32-1.64.47-.56.84-.99,1.11-1.28l.4-.42,4.53.19,2.97,2.83-.8,4.6-6.08.33c.03,1.23.05,2.43.05,3.61.57,0,1.1-.02,1.6-.05.5-.03.86-.06,1.08-.09l.33-.02-.14-1.98,3.3-.19-.19,2.55Zm-6.13-6.06l3.54-.35.17-2.22-3.72.09.02,2.47Z"/><path class="cls-1" d="m384.8,325.87c-1.12-.05-2.08-.09-2.9-.12.17-1.63.32-3.4.45-5.3-.58.05-1.21.13-1.89.26-.44-.3-.92-.66-1.44-1.07s-.93-.75-1.23-1l-.45-.4-.83-11.53,3.87-.19c-.08,3.76-.05,7.58.07,11.46l2.03.05c.19-3.36.36-7.24.52-11.62,1.32.08,2.59.15,3.82.21-.66,5.83-1.34,12.25-2.03,19.26Z"/><path class="cls-1" d="m401.13,320.35l-2.92.12-.02,5.19h-2.8c-.09-5.96-.23-12.38-.4-19.28l6.84-.09,2.88,3.11-.64,8.18c-.38.44-.81.89-1.3,1.36-.49.46-.88.82-1.18,1.07l-.45.35Zm-2.66-10.94c-.03,2.77-.06,5.45-.09,8.04h2.62l.28-7.8-2.81-.24Z"/><path class="cls-1" d="m413.76,310.28c-.68-.06-1.39-.13-2.15-.19-.33.3-.65.6-.97.91-.31.31-.54.54-.68.7l-.21.24c-.09,2.8-.15,5.69-.17,8.68h-3.18l-.19-13.93h3.75l-.05,1.72c.57-.55,1.13-1.11,1.7-1.67.74-.05,1.52-.09,2.36-.12-.05,1.18-.12,2.4-.21,3.68Z"/><path class="cls-1" d="m424.72,318.23c-.31.41-.67.82-1.07,1.24-.4.42-.73.73-.98.96l-.35.31-3.65.26-2.97-2.62-.45-8.56c.41-.53.85-1.08,1.32-1.64.47-.56.84-.99,1.11-1.28l.4-.42,4.53.19,2.97,2.83-.8,4.6-6.08.33c.03,1.23.05,2.43.05,3.61.57,0,1.1-.02,1.6-.05.5-.03.86-.06,1.08-.09l.33-.02-.14-1.98,3.3-.19-.19,2.55Zm-6.13-6.06l3.54-.35.17-2.22-3.72.09.02,2.47Z"/><path class="cls-1" d="m436.68,309.39c.03.55.05,1.23.07,2.05-1.37-.02-2.56-.05-3.58-.12,0-.52,0-1.08.02-1.7-.77.02-1.71.06-2.81.14,0,1.12.02,2.04.05,2.76.86.08,1.78.07,2.73-.02,1.04.8,2.11,1.61,3.23,2.43-.06.96-.16,2.03-.28,3.21-1.07,1.01-2.02,1.85-2.85,2.55-.97.02-2.07.03-3.28.05-1.12-1.01-2.04-1.86-2.78-2.57-.06-.57-.11-1.08-.14-1.56l3.32-.05c.02.47.02.94.02,1.39.83-.02,1.73-.03,2.69-.05l.05-2.45-2.69-.05c-.52-.38-1.06-.75-1.63-1.12-.57-.37-1.01-.65-1.32-.84l-.47-.26c-.05-1.32-.08-2.47-.09-3.46,1.19-1.3,2.3-2.39,3.32-3.25,1.05-.03,2.11-.07,3.18-.12,1.27,1.29,2.35,2.3,3.23,3.04Z"/><path class="cls-1" d="m447.66,318.23c-.31.41-.67.82-1.07,1.24-.4.42-.73.73-.98.96l-.35.31-3.65.26-2.97-2.62-.45-8.56c.41-.53.85-1.08,1.32-1.64.47-.56.84-.99,1.11-1.28l.4-.42,4.53.19,2.97,2.83-.8,4.6-6.08.33c.03,1.23.05,2.43.05,3.61.57,0,1.1-.02,1.6-.05.5-.03.86-.06,1.08-.09l.33-.02-.14-1.98,3.3-.19-.19,2.55Zm-6.13-6.06l3.54-.35.17-2.22-3.72.09.02,2.47Z"/><path class="cls-1" d="m456.41,320.59c0-3.6-.02-7.08-.05-10.44-1.18,0-2.22.03-3.13.09-.02,3.3.01,6.75.09,10.35-.64-.02-1.68-.02-3.11,0-.11-4.4-.24-7.9-.4-10.49,1.05-1.13,2.22-2.31,3.49-3.54,1.6.03,2.7.05,3.3.05.96,1.1,1.89,2.25,2.78,3.44l-.4,10.56c-.8,0-1.66,0-2.57-.02Z"/><path class="cls-1" d="m469.33,320.75l-3.84-.05c-.99-.91-1.99-1.8-2.99-2.66l-.09-8.23c-.38.02-.83.02-1.37.02l-.14-3.3,1.51.07c0-1.7,0-2.73-.02-3.09l3.46.12-.12,2.92h3.46c-.03.88-.08,2.01-.14,3.39-1.4-.05-2.55-.09-3.44-.12l-.09,7.95,3.73-.26.09,3.23Z"/><path class="cls-1" d="m480.49,309.39c.03.55.05,1.23.07,2.05-1.37-.02-2.56-.05-3.58-.12,0-.52,0-1.08.02-1.7-.77.02-1.71.06-2.81.14,0,1.12.02,2.04.05,2.76.86.08,1.78.07,2.73-.02,1.04.8,2.11,1.61,3.23,2.43-.06.96-.16,2.03-.28,3.21-1.07,1.01-2.02,1.85-2.85,2.55-.97.02-2.07.03-3.28.05-1.12-1.01-2.04-1.86-2.78-2.57-.06-.57-.11-1.08-.14-1.56l3.32-.05c.02.47.02.94.02,1.39.83-.02,1.73-.03,2.69-.05l.05-2.45-2.69-.05c-.52-.38-1.06-.75-1.63-1.12-.57-.37-1.01-.65-1.32-.84l-.47-.26c-.05-1.32-.08-2.47-.09-3.46,1.19-1.3,2.3-2.39,3.32-3.25,1.05-.03,2.11-.07,3.18-.12,1.27,1.29,2.35,2.3,3.23,3.04Z"/><path class="cls-1" d="m500.43,304.48c-.06,1.24-.18,2.61-.35,4.1-1.13-.03-2.16-.05-3.09-.05-.02-1.18,0-2.52.02-4.03-1.59.13-2.96.22-4.1.28-.03,2.11,0,4.22.07,6.34,1.32.02,2.67.02,4.05.02,1.04.91,2.06,1.81,3.06,2.69-.11,1.54-.17,2.93-.19,4.17-1.07.97-2.11,1.91-3.11,2.8-1.29,0-2.5,0-3.63-.02-1.37-.85-2.55-1.71-3.56-2.59l-.09-2.64,3.65-.05c0,1.1.02,1.96.05,2.57,1.07-.05,2.26-.12,3.58-.21.03-1.12.03-2.38,0-3.8-1.08-.02-2.32,0-3.7.02-1.34-.91-2.62-1.82-3.84-2.73.03-2.55-.02-4.9-.17-7.05,1.16-.99,2.27-2,3.32-3.04,1.4-.06,2.93-.12,4.6-.17,1.05,1.07,2.19,2.19,3.42,3.37Z"/><path class="cls-1" d="m509.97,319.36c-.5.42-1.02.89-1.56,1.39l-3.09-.02c-.88-.8-1.86-1.74-2.95-2.81-.08-1.46-.15-3.14-.22-5.03-.07-1.89-.12-3.42-.15-4.59l-.05-1.74c1.15-.02,2.39,0,3.72.05-.11,4.13-.17,7.7-.19,10.7.83,0,1.85,0,3.06-.02.03-3.55.03-6.95,0-10.18,1.24.02,2.48.06,3.73.12-.08,1.52-.18,3.17-.31,4.95-.13,1.78-.24,3.18-.33,4.2l-.12,1.53,1.56.47-.71,2.43-1.44-.35c-.13-.19-.27-.37-.44-.55s-.29-.32-.39-.41l-.14-.12Z"/><path class="cls-1" d="m520.24,320.35l-2.92.12-.02,5.19h-2.8c-.09-5.96-.23-12.38-.4-19.28l6.84-.09,2.88,3.11-.64,8.18c-.38.44-.81.89-1.3,1.36-.49.46-.88.82-1.18,1.07l-.45.35Zm-2.66-10.94c-.03,2.77-.06,5.45-.09,8.04h2.62l.28-7.8-2.81-.24Z"/><path class="cls-1" d="m534.59,318.23c-.31.41-.67.82-1.07,1.24-.4.42-.73.73-.98.96l-.35.31-3.65.26-2.97-2.62-.45-8.56c.41-.53.85-1.08,1.32-1.64.47-.56.84-.99,1.11-1.28l.4-.42,4.53.19,2.97,2.83-.8,4.6-6.08.33c.03,1.23.05,2.43.05,3.61.57,0,1.1-.02,1.6-.05.5-.03.86-.06,1.08-.09l.33-.02-.14-1.98,3.3-.19-.19,2.55Zm-6.13-6.06l3.54-.35.17-2.22-3.72.09.02,2.47Z"/><path class="cls-1" d="m544.33,310.28c-.68-.06-1.39-.13-2.15-.19-.33.3-.65.6-.97.91-.31.31-.54.54-.68.7l-.21.24c-.09,2.8-.15,5.69-.17,8.68h-3.18l-.19-13.93h3.75l-.05,1.72c.57-.55,1.13-1.11,1.7-1.67.74-.05,1.52-.09,2.36-.12-.05,1.18-.12,2.4-.21,3.68Z"/><path class="cls-1" d="m545.45,311.51c3.08.13,6.26.21,9.52.24-.03,1.54-.09,2.97-.17,4.29-3.36.08-6.44.13-9.22.17-.08-1.54-.13-3.1-.14-4.69Z"/><path class="cls-1" d="m566.8,318.35c-.97.71-1.96,1.48-2.97,2.33-1.78-.03-3.75-.05-5.92-.07-.47-6.74-.84-13.04-1.11-18.88,2.29-.2,4.69-.35,7.19-.45,1.05,1.05,2.18,2.14,3.39,3.25-.36,2.55-.68,4.9-.94,7.07-.3.24-.62.46-.97.68-.35.22-.61.39-.8.5l-.28.14c.66.31,1.52.68,2.59,1.08-.11,1.65-.17,3.1-.19,4.34Zm-3.46-6.65c.12-2.36.25-4.68.38-6.98-1.21-.02-2.34-.02-3.39,0,.03,1.07.07,2.19.13,3.36.06,1.17.11,2.08.15,2.72l.07.94c1.01,0,1.89-.02,2.66-.05Zm.24,3.06l-2.88-.09c.02,1.38.05,2.46.12,3.23.83,0,1.74-.02,2.71-.07.02-.97.03-2,.05-3.06Z"/><path class="cls-1" d="m572.67,304.74c-1.18-.02-2.41-.03-3.7-.05-.05-1.3-.09-2.49-.12-3.56,1.3,0,2.62.02,3.96.05-.05,1.04-.09,2.22-.14,3.56Zm-.54,15.82h-2.95l-.07-13.98,3.44.05-.42,13.93Z"/><path class="cls-1" d="m582.93,323.37c-.91.9-1.82,1.72-2.71,2.47-1.16.02-2.17.02-3.02.02-.88-.85-1.74-1.73-2.57-2.64.06-.58.1-1.24.12-1.98,1.1.06,1.97.12,2.62.17-.02.68-.02,1.26-.02,1.77.88.02,1.82.02,2.83,0l.02-2.36c-.83-.02-1.68-.02-2.55-.02-1.08-.94-2.07-1.85-2.95-2.71-.16-2.77-.35-5.55-.59-8.35,1.01-1.13,2.05-2.19,3.14-3.18,1.05-.06,2.22-.09,3.49-.09,1.12.96,2.21,2.02,3.28,3.18-.14,1.68-.28,3.23-.41,4.65-.13,1.41-.24,2.69-.33,3.83-.09,1.14-.2,2.89-.34,5.25Zm-2.29-13.58c-.99,0-2.07.02-3.25.05.11,2.7.18,5.4.21,8.09,1.02.02,1.96,0,2.81-.02.13-3.74.2-6.44.24-8.11Z"/><path class="cls-1" d="m585.85,311.51c3.08.13,6.26.21,9.52.24-.03,1.54-.09,2.97-.17,4.29-3.36.08-6.44.13-9.22.17-.08-1.54-.13-3.1-.14-4.69Z"/><path class="cls-1" d="m601.39,301.28c.42,2.12.88,4.25,1.38,6.38.5,2.13.88,3.73,1.14,4.8l.42,1.58c.44-1.89.92-3.89,1.44-6.02.52-2.13.93-3.79,1.25-4.99l.45-1.77,3.56.28c-.05,3.22-.07,6.43-.08,9.62,0,3.19,0,5.57.04,7.14l.02,2.36-3.18-.05-.09-9.5-1.84,6.77-3.18-.07-1.81-6.65c.01,1.51.02,2.96.02,4.36s0,2.59-.02,3.58l-.02,1.51-3.32.07c.06-2.97.11-6.05.13-9.24.02-3.19.04-5.63.04-7.33v-2.57l3.68-.26Z"/><path class="cls-1" d="m621.19,320.19l-4.6,1.04c-.96-.79-2.03-1.53-3.21-2.24-.14-1.87-.32-4.02-.54-6.44.85-.64,1.86-1.37,3.04-2.17.46.05.98.11,1.57.19.59.08,1.06.14,1.4.19l.52.05.14-1.63-5.09.24c-.09-.82-.17-1.84-.21-3.06h5.52c1.02.83,1.96,1.62,2.81,2.36-.17,1.56-.33,3.1-.46,4.64-.13,1.54-.22,2.69-.27,3.44l-.07,1.16c.31.11.92.23,1.82.35l-.71,2.81-1.65-.92Zm-5.09-6.91c.05,1.67.15,3.35.31,5.04,1.23-.16,2.13-.27,2.71-.35.05-1.41.09-2.96.14-4.64l-3.16-.05Z"/><path class="cls-1" d="m631.41,320.59c0-3.6-.02-7.08-.05-10.44-1.18,0-2.22.03-3.13.09-.02,3.3.01,6.75.09,10.35-.64-.02-1.68-.02-3.11,0-.11-4.4-.24-7.9-.4-10.49,1.05-1.13,2.22-2.31,3.49-3.54,1.6.03,2.7.05,3.3.05.96,1.1,1.89,2.25,2.78,3.44l-.4,10.56c-.8,0-1.66,0-2.57-.02Z"/><path class="cls-1" d="m652.62,318.18l-3.16,2.66h-3.16l-2.81-3.02c-.13-1.71-.25-3.6-.37-5.67-.12-2.07-.21-3.71-.27-4.94l-.07-1.82c.44-.66.9-1.32,1.38-1.98s.84-1.16,1.1-1.49l.38-.5,4.27-.26,3.54,3.77-.64,5.87-3.3.14.35-5.87-3.51.21c0,1.78,0,3.7.02,5.76.01,2.07.04,3.69.07,4.87l.02,1.75h2.83l.17-2.74,3.49.09-.33,3.14Z"/><path class="cls-1" d="m662.96,319.36c-.5.42-1.02.89-1.56,1.39l-3.09-.02c-.88-.8-1.86-1.74-2.95-2.81-.08-1.46-.15-3.14-.22-5.03-.07-1.89-.12-3.42-.15-4.59l-.05-1.74c1.15-.02,2.39,0,3.72.05-.11,4.13-.17,7.7-.19,10.7.83,0,1.85,0,3.06-.02.03-3.55.03-6.95,0-10.18,1.24.02,2.48.06,3.73.12-.08,1.52-.18,3.17-.31,4.95-.13,1.78-.24,3.18-.33,4.2l-.12,1.53,1.56.47-.71,2.43-1.44-.35c-.13-.19-.27-.37-.44-.55s-.29-.32-.39-.41l-.14-.12Z"/><path class="cls-1" d="m673.23,320.35l-2.92.12-.02,5.19h-2.8c-.09-5.96-.23-12.38-.4-19.28l6.84-.09,2.88,3.11-.64,8.18c-.38.44-.81.89-1.3,1.36-.49.46-.88.82-1.18,1.07l-.45.35Zm-2.66-10.94c-.03,2.77-.06,5.45-.09,8.04h2.62l.28-7.8-2.81-.24Z"/></svg>